<svg viewBox="0 0 252 43" xmlns="http://www.w3.org/2000/svg"><defs><linearGradient id="a" x1="50%" x2="50%" y1="100%"><stop stop-color="#D9CDCA" offset="0"/><stop stop-color="#A89F9C" offset="1"/></linearGradient><linearGradient id="f" x1="50%" x2="50%" y1="99.9%" y2="-.124%"><stop stop-color="#D9CDCA" offset="0"/><stop stop-color="#A89F9C" offset="1"/></linearGradient><linearGradient id="e" x1="50%" x2="50%" y1="100%" y2="-.158%"><stop stop-color="#D9CDCA" offset="0"/><stop stop-color="#A89F9C" offset="1"/></linearGradient><linearGradient id="d" x1="50%" x2="50%" y1="99.8%" y2="-.0668%"><stop stop-color="#D9CDCA" offset="0"/><stop stop-color="#A89F9C" offset="1"/></linearGradient><linearGradient id="c" x1="50%" x2="50%" y1="99.9%" y2="-.316%"><stop stop-color="#D9CDCA" offset="0"/><stop stop-color="#A89F9C" offset="1"/></linearGradient><linearGradient id="b" x1="50%" x2="50%" y1="99.9%" y2=".115%"><stop stop-color="#D9CDCA" offset="0"/><stop stop-color="#A89F9C" offset="1"/></linearGradient></defs><g fill="none" fill-rule="evenodd"><g fill="#030303"><polygon points="11.1 42.4 .2 32.4 10.4 .7 22.5 .7 28.1 8.3 28.7 6.1 32 6.1 33.4 .7 45.8 .6 46.4 1.7 46.6 .6 59.1 .6 59.6 1.7 59.8 .6 72.4 .6 74.6 6.2 74.9 6.2 75.3 7.2 76.3 .6 89.1 .6 89.4 1.6 89.5 .6 116 .6 117 12.5 117 19.6 116 19.6 117 23.1 116 30.7 116 30.7 116 34.5 116 42.4 89.8 42.4 89.5 41.4 89.4 42.4 76.7 42.4 73.7 36.2 72.8 42.4 60.3 42.4 59.7 41.4 59.5 42.4 47.2 42.4 46.5 41.5 46.3 42.4 34 42.4 28.8 36.4 25.6 36.4 24.8 35.6 23 42.4"/><path d="m156 41.4-.2 1h-13.1l-1-29.9 1.1-12h26.4l.1 1.1.3-1.1h26.2l.2 1.1.5-1.1h25.9l.3 1 .6-1h25.7l2.4 7.6-5.1 6.1v.1c.4 1.2.7 2.4 1.1 3.6.3.9 1.8 5.7 1.8 5.7l.8 2.7c.2.8.5 1.6.7 2.4l.7 2.4.3 1.1-10.2 10.1h-12.2l-4.7-19.3-5.4 7.5h-3.8l.3 1.5-7.2 10.2h-12.5l-.2-1-.6 1h-12.6l-.1-1-.5 1h-12.7l-.1-1.1-.4 1.1h-12.9l.1-.8z"/><polygon points="115 31.9 116 .6 142 .5 143 7.9 142 19.6 130 19.6 129 23.6 143 23.6 143 31.9 142 42.4 116 42.4"/></g><g transform="translate(2 2)"><polygon points="20.9 5.9 19.3 11.7 26.6 11.7 28.1 6 31.4 6 32.8 .5 42.4 .5 35.7 29.6 25.3 29.6 28.4 17.3 24.7 17.3 23.1 23.3 16.4 23.3 18.1 17.2 14.3 17.3 10.6 29.6 .5 29.6 9.8 .6 19.2 .6 17.7 5.8" fill="url(#a)"/><polygon points="55.7 .6 49.9 29.7 39.6 29.7 46.1 .6" fill="url(#f)"/><g fill="url(#a)"><polygon points="69.6 20.2 70.5 14.2 66.8 14.2 64.3 29.6 53.9 29.6 59.4 .5 69 .5 68.1 5.9 71.4 6 70.6 11.6 74.3 11.6 75.9 .5 85.5 .5 82.1 29.6 71.8 29.6 73.1 20.3"/><polygon points="111 23.6 111 29.6 86.1 29.6 89.2 .5 112 .5 112 5.6 98.4 5.6 97.9 11.6 112 11.6 111 17.2 97.4 17.2 97 23.5"/><path d="m245 .3 1.6 5.2h-6.7v.2c.3 1.1.6 2.3.9 3.4.3 1.2.7 2.4 1 3.6.4 1.2.7 2.4 1.1 3.7.4 1.2.8 2.5 1.1 3.7.2.8.5 1.5.7 2.3s.5 1.6.7 2.3c.2.8.5 1.6.7 2.4s.5 1.6.7 2.4h-10.4l-6.6-24h-6.7l-1.3-5.2h23.2z"/></g><polygon points="221 11.4 223 17.2 209 17.2 211 29.5 201 29.5 196 .4 219 .4 220 5.5 206 5.5 208 11.4" fill="url(#e)"/><path d="m181 20.1 1.3 9.4h-10.4l-3.2-29.1h23l5 29.2h-10.4l-1.4-9.4-3.9-.1zm6.8-11.4-.6-3.7h-4.5l.4 3.4h-3.6l-.5-3.4h-4.4l.5 3.7h4l.2 1.4h-2l.7 5.7h2.4l-.2-1.9h3.6l.3 2h2.5l-.9-5.7h-2l-.2-1.4 4.3-.1z" fill="url(#d)"/><path d="m163 14.5h3.4l1.5 15.1h-10.4l-.9-12.3-3.9-.1.8 12.4h-10.4l-1.1-29.1h23l1.1 10.8h-3.4l.3 3.2zm-6.8-2.9-.4-6h-3.7l.4 6h3.7z" fill="url(#c)"/><polygon points="126 5.6 139 5.6 139 .4 116 .5 115 29.6 140 29.6 139 23.6 125 23.6" fill="url(#b)"/></g><g fill="#29282A"><path d="m4 31.6c-.8 0-1 .5-.4 1l7.2 6.9c.6.6 1.8 1 2.6 1h6.2c.8 0 1-.5.5-1.1l-6.3-6.7c-.6-.6-1.7-1.1-2.5-1.1h-7.3z"/><path d="m28.8 31.6c-.8 0-1.1.5-.5 1.1l5.6 6.6c.5.6 1.6 1.1 2.5 1.1h6.5c.8 0 1.1-.5.6-1.2l-4.9-6.5c-.5-.7-1.6-1.2-2.4-1.2l-7.4.1z"/><path d="m19.9 25.3c-.8 0-1.1.5-.5 1.1l6.2 7c.5.6 1.5 1.1 2.1 1.1s.7-.6.2-1.3l-.3-.4c-.5-.7-.7-1.9-.5-2.7v-.2c.2-.8 0-2-.5-2.6l-.6-.9c-.5-.6-1.6-1.2-2.4-1.2l-3.7.1z"/><path d="m43.1 31.7c-.8 0-1.1.5-.6 1.2l4.7 6.5c.5.7 1.6 1.2 2.4 1.2h6.4c.8 0 1.1-.6.7-1.3l-4-6.3c-.4-.7-1.5-1.3-2.3-1.3h-7.3z"/><path d="m57.4 31.6c-.8 0-1.1.6-.7 1.3l3.8 6.3c.4.7 1.5 1.3 2.3 1.3h6.3c.8 0 1.2-.6.8-1.3l-3-6.2c-.4-.7-1.3-1.3-2.2-1.3l-7.3-.1z"/><path d="m75.3 31.6c-.8 0-1.2.6-.9 1.4l2.9 6.2c.3.7 1.3 1.4 2.1 1.4h6.5c.8 0 1.3-.6 1-1.4l-2.3-6.2c-.3-.8-1.2-1.4-2-1.4h-7.3z"/><path d="m89.6 31.6c-.8 0-1.3.6-1 1.4l2.1 5.9c.3.8 1.2 1.4 2 1.4h19.8c.8 0 1.4-.7 1.3-1.5l-.8-5.8c-.1-.8-.9-1.5-1.7-1.5l-21.7.1z"/><path d="m118 31.6c-.8 0-1.4.7-1.3 1.5l.6 6c.1.8.8 1.5 1.7 1.5h19.7c.8 0 1.6-.7 1.7-1.5l.7-6c.1-.8-.5-1.5-1.3-1.5h-21.8z"/><path d="m147 31.6c-.8 0-1.6.7-1.7 1.5l-.7 5.9c-.1.8.5 1.5 1.3 1.5h6.4c.8 0 1.7-.7 1.8-1.5l1.4-6c.2-.8-.3-1.5-1.1-1.5l-7.4.1z"/><path d="m161 31.6c-.8 0-1.7.7-1.8 1.5l-1.4 5.9c-.2.8.3 1.5 1.2 1.5h6.4c.8 0 1.7-.6 2-1.4l2.1-5.9c.3-.8-.2-1.4-1-1.4l-7.5-.2z"/><path d="m176 31.5c-.8 0-1.7.6-2 1.4l-2.1 6.1c-.3.8.2 1.4 1 1.4h6.4c.8 0 1.8-.6 2.1-1.4l2.9-6.2c.3-.7 0-1.4-.9-1.4l-7.4.1z"/><path d="m190 31.5c-.8 0-1.8.6-2.2 1.3l-3 6.2c-.4.7 0 1.3.8 1.3h6.6c.8 0 1.8-.6 2.2-1.3l3.6-6.3c.4-.7.1-1.3-.7-1.3l-7.3.1z"/><path d="m204 31.5c-.8 0-1.8.6-2.3 1.3l-3.9 6.3c-.4.7-.1 1.3.7 1.3h6.5c.8 0 1.9-.5 2.4-1.2l4.6-6.5c.5-.7.2-1.2-.6-1.2h-7.4z"/><path d="m240 31.5c-.8 0-1.9.5-2.5 1.1l-5.8 6.6c-.5.6-.3 1.1.5 1.1h6.2c.8 0 2-.5 2.6-1l6.9-6.7c.6-.6.4-1-.4-1l-7.5-.1z"/></g><g fill="#030303"><g transform="translate(5 1)" opacity=".44"><path d="m5.1 6.4c-.1.2.5.3 1.4.3h6.8c.8 0 1.5-.2 1.5-.4s-.7-.4-1.5-.4h-6.6c-.8.1-1.5.3-1.6.5z"/><path d="m4.5 21.3c.3-.8-.2-1.4-1-1.4h-1.5c-.8 0-1.5.1-1.5.3s.7.3 1.5.3h.6c.8 0 1.3.6 1 1.4l-1.5 4.5c-.3.8.2 1.4 1 1.4h5c.8 0 1.5-.1 1.5-.3s-.7-.3-1.5-.3h-4.2c-.8 0-1.3-.6-1-1.4v-.1c.3-.8 1.1-1.4 2-1.4h3.8c.8 0 1.5-.1 1.5-.3s-.7-.3-1.5-.3h-3.6c-.8 0-1.3-.6-1-1.4l.4-1z"/><path d="m32.9 7.8c.1-.8-.4-1.5-1.3-1.5h-1.8c-.8 0-1.6.1-1.6.3-.1.2.6.3 1.4.3h1.3c.8 0 1.4.7 1.3 1.5l-.2 1.9c-.1.8-.9 1.5-1.7 1.5h-6.3c-.8 0-1.5.1-1.5.3s.7.3 1.5.3h6.2 1.7 1.7 3c.8 0 1.5-.1 1.5-.3s-.7-.3-1.5-.3h-2.7c-.8 0-1.4-.7-1.3-1.5l.3-2.5z"/><path d="m41.9 27.2c.1-.8.1-1.2-.2-.8-.2.4-.6 1.4-.7 2.2l-.2.8c-.2.8.1 2 .6 2.7l.2.3c.5.7 1.2 1.5 1.6 1.8s.4 0-.1-.7l-1-1.5c-.5-.7-.7-1.9-.6-2.7l.4-2.1z"/><path d="m52.1 7.4c0-.2-.7-.3-1.5-.3h-2.4c-.8 0-1.2.1-.8.3.4.1 1.4.3 2.2.3h1c.8 0 1.5-.1 1.5-.3z"/><path d="m56 28.7c.2-.8.1-1.1-.1-.7-.3.4-.6 1.1-.7 1.7-.1.5 0 1.5.2 2.1s.7 1.4.9 1.8c.3.3.3 0 0-.8l-.2-.8c-.3-.8-.3-2.1-.1-2.9v-.4z"/><path d="m53.6 21.2c-.8 0-1.5.1-1.5.2s.7.3 1.5.4l7.3.4c.8 0 1.7.4 1.9.7.2.4.6.6.7.5s0-.5-.3-1c-.3-.4-1.2-.8-2-.9l-7.6-.3z"/><path d="m61.5 6.4c.3.2 1.2.4 2 .4h.3c.8 0 1.5-.1 1.5-.3s-.7-.3-1.5-.4h-1.4c-.8 0-1.2.1-.9.3z"/><path d="m70.7 21.4c-.8 0-1.5.2-1.5.4s.7.3 1.5.3l4.1-.2c.8 0 1.4.6 1.3 1.4l-.9 5.8c-.1.8 0 2.1.2 2.9l.1.4c.2.8.7 1.8 1 2.2s.4.2.1-.6l-.6-2c-.2-.8-.3-2.1-.2-2.9l1-6.4c.1-.8-.4-1.5-1.3-1.4l-4.8.1z"/><path d="m72.1 6.3c0 .2.6.4 1.4.6l7.2.8c.8.1 1.5 0 1.5-.1 0-.2-.7-.4-1.5-.5l-7.1-.8c-.8-.2-1.5-.2-1.5 0z"/><path d="m88.4 25.5c0-.8-.6-1.5-1.4-1.5h-2.4c-.8 0-1.5.1-1.5.3s.7.3 1.5.3h1.7c.8 0 1.5.7 1.4 1.5l-.1 2.9c0 .8.1 2.1.3 2.9l.4 1.7c.2.8.6 1.8.8 2.2s.3.1.1-.7l-.7-3.3c-.2-.8-.3-2.1-.3-3l.2-3.3z"/><path d="m84.6 10c0 .2.7.3 1.5.3h2.3c.8 0 1.8-.2 2.2-.4s0-.4-.8-.3l-3.7.1c-.8-.1-1.5.1-1.5.3z"/><path d="m102 13.4c0-.8-.2-1.5-.4-1.5s-.3.7-.3 1.5v2.8c0 .8.2 1.1.4.7s.4-1.5.3-2.3v-1.2z"/><path d="m105 24.7c0 .8-.7 1.4-1.5 1.4h-1.8c-.8 0-1.5.7-1.5 1.5v1.8c0 .8.1 1.5.3 1.5s.3-.7.3-1.5v-1.1c0-.8.7-1.5 1.5-1.5h1.8c.8 0 1.5-.7 1.5-1.5v-.4c0-.8-.1-1.5-.3-1.5-.1 0-.3.6-.3 1.3z"/><path d="m131 26.2c-.1.3-.2 1.2-.1 2l.1 1c.1.8.1 2.2 0 3l-.9 6.2c-.1.8 0 1.5.2 1.5s.5-.7.6-1.5l.8-6.1c.1-.8.1-2.2 0-3l-.2-2c-.2-1-.4-1.4-.5-1.1z"/><path d="m112 36.2c0 .2.7.3 1.5.3h.1c.8 0 1.5-.1 1.5-.3s-.7-.3-1.5-.3h-.1c-.8-.1-1.5.1-1.5.3z"/><path d="m114 10.8c.3.2 1.3.5 2.1.6l5 .8c.8.3 1.4.5 1.5.3s-.5-.5-1.3-.8l-6.4-1.1c-.8 0-1.2 0-.9.2z"/><path d="m114 16.7c.3-.2-.1-.3-.9-.3s-1.5.2-1.5.4.4.3.9.3 1.2-.2 1.5-.4z"/><path d="m144 11.1c0 .4.8.7 1.6.7h.3c.8 0 1.6 0 1.7.1.1 0 .5.3.7.2s0-.3-.2-.6c-.3-.2-1.2-.4-2-.4s-1.5-.7-1.6-1.5l-.8-7.2c-.1-.8-.3-1.5-.5-1.5s-.2.7-.1 1.5l.6 5.7c.1.8-.5 1.5-1.3 1.5h-1.9c-.8 0-1.5.1-1.5.3s.7.3 1.5.3h1.9c.9.2 1.6.5 1.6.9z"/><path d="m143 25.9c.1.8-.2 2-.6 2.7s-.7 1.9-.5 2 .5-.5.7-1.3c.2-.7.9-1.4 1-1.4s.1-.7.1-1.5l-.2-3.1c-.1-.8.6-1.5 1.4-1.5h4.8c.8 0 1.5-.1 1.5-.3s-.7-.3-1.5-.3h-5.5c-.8 0-1.5.7-1.4 1.5l.2 3.2z"/><path d="m154 23.4c0 .2.7.3 1.5.3h3.1c.8 0 1.8-.1 2.1-.3s-.1-.3-.9-.3h-4.3c-.8 0-1.5.1-1.5.3z"/><path d="m157 14.4c.2.2 1 .3 1.8.3h.7c.8 0 1.5-.1 1.5-.3s-.7-.3-1.5-.3h-1.4c-.7 0-1.2.2-1.1.3z"/><path d="m139 36.7c0 .2.6.4 1.5.4l7.3.5c.8.1 1.5 0 1.5-.2s-.6-.4-1.5-.4l-7.3-.5c-.8-.1-1.4 0-1.5.2z"/><path d="m183 23.1c-.8 0-1.5.2-1.5.3 0 .2.7.3 1.5.3l8.9 1c.8.1 1.5 0 1.6-.2s-.6-.4-1.4-.4l-9.1-1z"/><path d="m212 11.4c-.2.1-.3.8-.2 1.6 0 0 1.2 3.4.8 4.1s-.5 1.3-.3 1.4.6-.5.9-1.2l-.9-4.5c0-.8-.1-1.4-.3-1.4z"/><path d="m207 3.5c-.7 0-1.4-.6-1.6-1.3s-.5-1.2-.7-1.1-.1.7.1 1.5v.1c.2.8 1 1.4 1.7 1.4s1.4.6 1.7 1.4l.2.7c.3.8.6 1.4.8 1.3s.1-.7-.2-1.5l-.4-1.1c-.1-.7-.9-1.4-1.6-1.4z"/><path d="m232 21.9c-.8 0-1.5.1-1.5.3s.7.3 1.5.3h8.4c.8 0 1.5-.1 1.5-.3s-.7-.3-1.5-.3h-8.4z"/><path d="m239 7c.2 0 .1-.7-.1-1.5l-.8-2.9c-.2-.8-.5-1.4-.7-1.4s-.1.7.1 1.5l.8 2.9c.3.8.6 1.4.7 1.4z"/></g><path d="m33 7.8h2.7c.8 0 .8-.1 0-.3l-.7-.1c-.8-.2-1.4 0-1.4.3l-.6.1z"/><path d="m17.1 35.9c-.3-.3-1.2-.5-2-.4l-1.4.2c-.8.1-.8.3 0 .4l2.4.3c.8 0 1.3-.1 1-.5z"/><path d="m44 39.4c-.2-.3-1-.5-1.9-.5l-3.2.3c-.8.1-.8.2 0 .3l4 .4c.8 0 1.3-.2 1.1-.5z"/><path d="m76.5 38.1c-.1-.3.5-.5 1.3-.5h.6c.8 0 .8.2.1.5l-.4.1c-.8.2-1.5.2-1.6-.1z"/><path d="m114 36c-.1-.4-.8-.7-1.6-.6l-2.2.3c-.8.1-.8.3 0 .4l2.4.4c.9.2 1.5 0 1.4-.5z"/><path d="m117 37.6c0-.4.6-.7 1.3-.6.8.1.8.4.1.8s-1.3.2-1.4-.2z"/><path d="m93.3 30.3c-.1-.6-.3-.7-.4-.1s0 1.7.2 2.5l.1.3c.2.8.4.8.3 0 0-.9-.1-2.1-.2-2.7z"/><path d="m106 30.8c-.1-.3-.2.2-.2 1v.1c0 .8.1 1 .3.4.1-.6.1-1.3-.1-1.5z"/><path d="m80.6 30.5c0-.6-.1-.6-.3 0-.1.6 0 1.8.3 2.6l.1.3c.3.8.4.8.2-.1v-.2c-.1-.8-.3-2-.3-2.6z"/><path d="m60.5 31c-.1-.3-.3-.2-.4.1s0 .9.3 1.3.5.4.4-.1-.2-1.1-.3-1.3z"/><path d="m46.4 30.5c-.1-.6-.4-.6-.6.2-.2.7.1 1.7.6 2.3.5.5.8.5.6-.2-.1-.6-.4-1.6-.6-2.3z"/><path d="m21.1 29.6c-.2-.3.3-.4 1.1-.3l1.9.2c.8.1.8.2 0 .3l-1.1.1c-.8.1-1.7 0-1.9-.3z"/><path d="m136 30.2c.1-.8.4-.8.5 0 .2.8.1 2.1-.1 2.9l-.2.7c-.2.8-.4.8-.4 0v-.6c0-.9.1-2.2.2-3z"/><path d="m128 13.8c0 .3-.6.2-1.2-.3l-.2-.1c-.7-.5-.6-.7.1-.5.7.1 1.3.5 1.3.9z"/><path d="m169 35.2c.1-.3-.5-.5-1.3-.5h-.7c-.8 0-.8.2-.1.4l.5.1c.8.4 1.5.3 1.6 0z"/><path d="m164 30.8c-.2-.4-.3-.2-.3.6s.2 1.1.4.8c.2-.4.1-1-.1-1.4z"/><path d="m183 36.6c.1-.3-.5-.5-1.3-.5l-2.3.2c-.8.1-.8.2 0 .3l1.9.3c.8.2 1.6 0 1.7-.3z"/><path d="m180 30.9c-.1-.3-.3-.4-.4-.1s-.1 1 .1 1.6c.1.6.3.6.4.1s.1-1.2-.1-1.6z"/><path d="m217 19.7c-.3-.1-.2-.7.1-1.4s.5-.6.5.2-.4 1.3-.6 1.2z"/><path d="m200 35.8c.3-.3 1.1-.5 2-.4l3.4.6c.8.1.8.2 0 .3l-4.3.1c-.9 0-1.3-.2-1.1-.6z"/><path d="m234 35.8c.3-.4 1.2-.7 2.1-.5l3.1.6c.8.2.8.3 0 .4l-4.2.2c-.9.1-1.3-.2-1-.7z"/><path d="m236 23.2c-.1-.5.4-.8 1.2-.7l2.7.4c.8.1.8.3 0 .5l-2.2.4c-.8.1-1.6-.2-1.7-.6z"/><g transform="translate(231 6)" opacity=".5"><path d="m1.1 2.5c-.2-.2-.4-1-.5-1.8s.1-.8.3 0l.2.7c.3.8.3 1.3 0 1.1z"/></g><path d="m198 26.2-1.8-.7c-.8-.3-.7-.5.1-.4l1.9.2"/><g transform="translate(121 30)" opacity=".5"><path d="m5 2.3c.1-.4.1-1 0-1.4s-.9-.7-1.8-.7h-.5c-.8 0-1.7.4-2 .8s.2 1 1 1.2l1.6.4c.8.2 1.6.1 1.7-.3z"/></g><path d="m125 31.2c-.5-.5-.5-1 .1-1 .5 0 1.2.3 1.4.6.3.3.1 1.2-.3 1.8-.4.7-.7.9-.5.4 0-.4-.3-1.2-.7-1.8z"/><path d="m77 7.5c.1-.4.8-.6 1.6-.4h.1c.8.2.8.5 0 .7l-.3.1c-.9.2-1.5 0-1.4-.4z"/><path d="m42.8 13.2c-.1.3-.9.3-1.7.1h-.2c-.8-.2-.8-.4 0-.4h.6c.9-.1 1.4.1 1.3.3z"/><path d="m15.3 24.9c.1-.3-.4-.5-1.3-.3l-.9.2c-.8.2-.8.4 0 .5l.4.1c.9 0 1.7-.2 1.8-.5z"/></g><g fill="#29282A"><path d="m17.4 36c-.2-.3-.2-1.1 0-1.9l.2-.7c.2-.8.4-.8.4.1l-.1 1.5c-.1.8-.3 1.3-.5 1z"/><path d="m43.8 39.5c-.2-.1-.2-.8 0-1.4s.4-.5.4.3-.2 1.3-.4 1.1z"/><path d="m67.6 23.6c0-.5.2-.2.5.5l.1.2c.3.8.3 1.1 0 .8s-.6-1-.6-1.5z"/><path d="m200 36.3c.3-.2.3-1 .1-1.8l-.2-.8c-.2-.8-.4-.8-.4.1v1.4c0 .8.2 1.3.5 1.1z"/><path d="m235 36c.4-.2.4-1 .1-1.7l-1.3-2.8c-.3-.7-.5-.7-.4.1l.6 3.3c.2.8.6 1.3 1 1.1z"/><path d="m236 23.1c-.1-.3-.6.1-.9.8l-1.3 2.7c-.4.7-.3.8.2.1l1.4-1.9c.5-.6.7-1.4.6-1.7z"/></g><path d="m214 8.6.1-1.6c0-.8.2-.8.4 0l.5 1.8" fill="#030303"/><g fill="#5A5558"><path d="m12.4 36.8c-.7-.2-.6-.3.1-.3.7.1 1.8.2 2.4.3s.5.2-.1.3c-.7 0-1.8-.1-2.4-.3z"/><path d="m45.9 33.1c-.6-.6-.6-.5-.1.2l.4.5c.5.7 1.2 1.4 1.6 1.7s.4 0-.1-.5-1.3-1.4-1.8-1.9z"/><path d="m59.4 31.6c-.2 0-.1.5.2 1.1s.4.6.3 0-.3-1.1-.5-1.1z"/><path d="m78.9 38.3c-.6-.1-.4-.2.4-.4l.5-.1c.8-.1 1.2-.1.8.2-.4.2-1.2.4-1.7.3z"/><path d="m92.4 32.7c-.3-.4-.4-.1-.2.5.1.7.5 1.7.8 2.3s.4.4.2-.4l-.1-.3c0-.8-.4-1.8-.7-2.1z"/><path d="m137 33.8c-.1-.4-.3-.4-.5.2s-.3 1.5-.3 2.2.2.6.5-.2c.3-.7.4-1.7.3-2.2z"/><path d="m122 30.9c-.1-.4-.5-.4-.7.2-.3.5.1 1.2.8 1.6s1 .3.7-.2c-.3-.4-.7-1.1-.8-1.6z"/><path d="m148 38.5c-.7-.2-.5-.3.3-.3s2 .2 2.7.4.5.4-.3.3c-.9 0-2.1-.2-2.7-.4z"/><path d="m164 32.7c-.1-.3-.3 0-.5.5s-.2.8.1.5.5-.8.4-1z"/><path d="m181 32.1c-.1-.3-.3 0-.5.5-.2.6-.2.8.1.5s.5-.8.4-1z"/><path d="m178 37c-.8-.1-.7-.3.1-.4h.3c.8-.1 1.8 0 2.2.3.4.2.3.4-.3.4-.5 0-1.5-.2-2.3-.3z"/><path d="m202 36.9c-.7.1-.7-.1 0-.3s1.9-.3 2.7-.2l.7.1c.8.1.8.2 0 .2h-.7c-.8.1-2.1.2-2.7.2z"/></g><path d="m218 19.9c-.3.1-.9.8-1.2 1.5s-.1.7.4.1l.5-.7c.6-.6.7-1.1.3-.9z" fill="#29282A"/><g fill="#030303"><path d="m244 8.3c-.3 0-.6-.7-.7-1.5v-.3c-.1-.8.1-.9.5-.1l.2.5c.3.8.3 1.4 0 1.4z"/><path d="m144 11.3c0-.4.6-.7 1.4-.6h.2c.8 0 .9.3.1.6l-.3.1c-.7.4-1.4.3-1.4-.1z"/><path d="m107 12.7c-.3-.1-.4.4-.3 1.2v.3c.1.8.3.9.5.1.1-.7 0-1.5-.2-1.6z"/><path d="m73.6 23c-.1-.3.5-.5 1.3-.5h2.6c.8 0 .8.1 0 .3l-2.3.5c-.7.1-1.5 0-1.6-.3z"/><path d="m14.7 28.8c0-.2-.6-.4-1.4-.4h-.4c-.8 0-.8.2 0 .4l.3.1c.7.1 1.4.1 1.5-.1z"/></g><g fill="#E0DBD6"><path d="m4.3 31.2c-.8 0-1.4.1-1.2.3.1.1.9.3 1.8.3h5.2c.8 0 1.6-.1 1.8-.3s-.4-.3-1.2-.3h-6.4z"/><path d="m29.3 31.2c-.8 0-1.4.1-1.2.3.1.1.9.3 1.8.3h5.2c.8 0 1.6-.1 1.8-.3.1-.2-.4-.3-1.2-.3h-6.4z"/><path d="m43.4 31.1c-.8 0-1.5.2-1.4.3 0 .1.7.3 1.5.3s1.4-.1 1.5-.3c0-.2-.6-.3-1.4-.3h-.2z"/><path d="m18.3 18.8c-.8 0-1.5.2-1.4.3 0 .1.7.3 1.5.3s1.4-.1 1.5-.3c0-.2-.6-.3-1.4-.3h-.2z"/><path d="m28.7 18.8c-.8 0-1.5.2-1.4.3 0 .1.7.3 1.5.3s1.4-.1 1.5-.3-.6-.3-1.4-.3h-.2z"/><path d="m7.9 20.5c-.8 0-1.4.2-1.3.3 0 .1.6.3 1.3.3s1.3-.1 1.3-.3-.6-.3-1.3-.3z"/><path d="m20.4 24.7c-.8 0-1.4.1-1.3.3.1.1.8.3 1.7.3h2.2c.8 0 1.6-.1 1.7-.3s-.5-.3-1.3-.3h-3z"/><path d="m14.7 6.7c-.8 0-1.4.1-1.3.3s.8.3 1.7.3h2.2c.8 0 1.6-.1 1.7-.3s-.5-.3-1.3-.3h-3z"/><path d="m57.8 31.1c-.8 0-1.5.2-1.4.3s.7.3 1.5.3 1.4-.1 1.5-.3c0-.2-.6-.3-1.4-.3h-.2z"/><path d="m82.4 31.1c-.8 0-1.4.2-1.3.3 0 .1.6.3 1.3.3s1.3-.1 1.3-.3c.1-.2-.5-.3-1.3-.3z"/><path d="m62.4 31.1c-.8 0-1.4.1-1.4.3.1.1.8.3 1.6.3h1.6c.8 0 1.6-.1 1.6-.3.1-.2-.5-.3-1.4-.3h-2z"/><path d="m75.5 31.1c-.8 0-1.4.1-1.3.3.1.1.8.3 1.7.3h2.1c.8 0 1.6-.1 1.7-.3s-.5-.3-1.3-.3h-2.9z"/><path d="m89.9 31.1c-.8 0-1.4.2-1.4.3s.8.3 1.6.3h.7c.8 0 1.6-.1 1.6-.3.1-.2-.6-.3-1.4-.3h-1.1z"/><path d="m118 31.1c-.8 0-1.4.2-1.4.3.1.1.8.3 1.6.3h.7c.8 0 1.6-.1 1.6-.3.1-.2-.6-.3-1.4-.3h-1.1z"/><path d="m139 31.1c-.8 0-1.4.2-1.4.3.1.1.8.3 1.6.3h.3c.8 0 1.5-.1 1.6-.3s-.6-.3-1.4-.3h-.7z"/><path d="m149 31.1c-.8 0-1.4.1-1.3.3.1.1.9.3 1.7.3h4.1c.8 0 1.6-.1 1.7-.3s-.4-.3-1.3-.3h-4.9z"/><path d="m162 31.1c-.8 0-1.5.2-1.4.3s.8.3 1.6.3 1.5-.1 1.6-.3-.6-.3-1.4-.3h-.4z"/><path d="m166 31.1c-.8 0-1.4.1-1.3.3s.8.3 1.6.3h1.6c.8 0 1.6-.1 1.6-.3.1-.2-.5-.3-1.3-.3h-2.2z"/><path d="m176 31.1c-.8 0-1.4.2-1.4.3s.8.3 1.6.3h.9c.8 0 1.6-.1 1.6-.3.1-.2-.5-.3-1.4-.3h-1.3z"/><path d="m182 31.1c-.8 0-1.4.2-1.4.3.1.1.8.3 1.6.3h.2c.8 0 1.5-.1 1.6-.3s-.6-.3-1.4-.3h-.6z"/><path d="m190 31.1c-.8 0-1.4.1-1.2.3s1 .3 1.8.3h5.8c.8 0 1.6-.1 1.8-.3s-.4-.3-1.2-.3h-7z"/><path d="m205 31.1c-.8 0-1.4.1-1.2.3.2.1 1 .3 1.8.3h5.8c.8 0 1.6-.1 1.8-.3s-.4-.3-1.2-.3h-7z"/><path d="m241 31.1c-.8 0-1.4.1-1.2.3.2.1 1 .3 1.8.3h5.8c.8 0 1.6-.1 1.8-.3s-.4-.3-1.2-.3h-7z"/><path d="m227 7.1c-.8 0-1.4.1-1.3.3.1.1.8.3 1.7.3h2c.8 0 1.6-.1 1.7-.3s-.5-.3-1.3-.3h-2.8z"/><path d="m216 7.1c-.8 0-1.4.1-1.3.3s.9.3 1.7.3h2.7c.8 0 1.6-.1 1.7-.3s-.5-.3-1.3-.3h-3.5z"/><path d="m210 7.1c-.8 0-1.4.2-1.4.3.1.1.8.3 1.6.3h1c.8 0 1.6-.1 1.6-.3.1-.2-.5-.3-1.4-.3h-1.4z"/><path d="m212 18.8c-.8 0-1.4.1-1.3.3.1.1.8.3 1.7.3h2.1c.8 0 1.6-.1 1.7-.3s-.5-.3-1.3-.3h-2.9z"/><path d="m178 6.3c-.8 0-1.4.2-1.4.3s.8.3 1.6.3h1c.8 0 1.6-.1 1.6-.3.1-.2-.5-.3-1.4-.3h-1.4z"/><path d="m186 6.3c-.8 0-1.4.2-1.4.3.1.1.8.3 1.6.3h1c.8 0 1.6-.1 1.6-.3.1-.2-.5-.3-1.4-.3h-1.4z"/><path d="m180 11.5c-.6 0-1.1.2-1 .3 0 .1.5.3 1 .3s1-.1 1-.3c0-.3-.4-.4-1-.3z"/><path d="m183 9.8c-.8 0-1.3.2-1.3.3s.6.3 1.3.3 1.3-.1 1.3-.3-.6-.3-1.3-.3z"/><path d="m147 10.1c-.8 0-1.3.2-1.3.3s.6.3 1.3.3 1.3-.1 1.3-.3-.5-.3-1.3-.3z"/><path d="m156 18.5c-.8 0-1.5.2-1.4.3s.8.3 1.6.3 1.5-.1 1.6-.3-.6-.3-1.4-.3h-.4z"/><path d="m150 21.5c-.8 0-1.4.1-1.3.3.1.1.8.3 1.6.3h1.6c.8 0 1.6-.1 1.6-.3.1-.2-.5-.3-1.3-.3h-2.2z"/><path d="m240 22.2c-.8 0-1.4.1-1.3.3.1.1.8.3 1.6.3h1.6c.8 0 1.6-.1 1.6-.3.1-.2-.5-.3-1.3-.3h-2.2z"/><path d="m90.6 24.5c-.8 0-1.4.2-1.4.3s.8.3 1.6.3h.4c.8 0 1.5-.1 1.6-.3s-.6-.3-1.4-.3h-.8z"/><path d="m78 22c-.8 0-1.4.2-1.4.3.1.1.8.3 1.6.3h.4c.8 0 1.5-.1 1.6-.3s-.5-.3-1.4-.3h-.8z"/><path d="m59.9 21.8c-.8 0-1.4.2-1.4.3.1.1.8.3 1.6.3h.4c.8 0 1.5-.1 1.6-.3s-.6-.3-1.4-.3h-.8z"/><path d="m32.6 12.1c-.8 0-1.4.1-1.3.3s.8.3 1.6.3h1.7c.8 0 1.6-.1 1.6-.3.1-.2-.5-.3-1.3-.3h-2.3z"/><path d="m83.9 7.5c-.8-.1-1.5 0-1.4.1s.7.4 1.5.5l.4.1c.8.1 1.6.1 1.6-.1.1-.2-.5-.4-1.3-.5l-.8-.1z"/><path d="m162 23.5c-.8 0-1.4.2-1.4.3.1.1.8.3 1.6.3h.4c.8 0 1.5-.1 1.6-.3s-.6-.3-1.4-.3h-.8z"/><path d="m184 21.3c-.8 0-1.4.2-1.4.3.1.1.8.3 1.6.3h.4c.8 0 1.5-.1 1.6-.3s-.6-.3-1.4-.3h-.8z"/><path d="m130 6.9c-.8 0-1.3.1-1.2.3.2.1 1 .3 1.8.3h7.7c.8 0 1.7-.1 1.8-.3s-.3-.3-1.2-.3h-8.9z"/><path d="m102 7c-.8 0-1.3.1-1.1.3.2.1 1 .3 1.9.3h8.1c.8 0 1.7-.1 1.9-.3s-.3-.3-1.1-.3h-9.7z"/><path d="m101 18.5c-.8 0-1.4.1-1.3.3.1.1.9.3 1.7.3h3c.8 0 1.6-.1 1.7-.3s-.5-.3-1.3-.3h-3.8z"/><path d="m108 18.5c-.8 0-1.4.1-1.3.3.1.1.9.3 1.7.3h2.7c.8 0 1.6-.1 1.7-.3s-.5-.3-1.3-.3h-3.5z"/><path d="m124 29.6c-.8 0-1.5.2-1.4.3s.7.3 1.5.3 1.4-.1 1.5-.3c0-.2-.7-.3-1.6-.3z"/><path d="m122 11.1c-.8-.1-1.4 0-1.4.1.1.2.8.4 1.6.5l1.1.1c.8.1 1.6.1 1.7-.1s-.5-.4-1.3-.5l-1.7-.1z"/><path d="m190 23.6c-.8-.1-1.4 0-1.4.1.1.2.8.4 1.6.5l1.1.1c.8.1 1.6.1 1.7-.1s-.5-.4-1.3-.5l-1.7-.1z"/><path d="m187 11.5c-.6 0-1 .2-1 .3s.5.3 1 .3.9-.1 1-.3c0-.3-.5-.4-1-.3z"/><path d="m220 18.8c-.8 0-1.4.1-1.3.3.1.1.9.3 1.7.3h2.7c.8 0 1.6-.1 1.7-.3s-.5-.3-1.3-.3h-3.5z"/><path d="m246 7.1c-.8 0-1.4.2-1.4.3.1.1.8.3 1.6.3h1.1c.8 0 1.6-.1 1.6-.3.1-.2-.5-.3-1.4-.3h-1.5z"/><path d="m128 31.1c-.8 0-1.4.1-1.2.3.1.1.9.3 1.7.3h4.8c.8 0 1.6-.1 1.7-.3s-.4-.3-1.2-.3h-5.8z"/><path d="m95.2 31.1c-.8 0-1.3.1-1.2.3s1 .3 1.8.3h7.3c.8 0 1.6-.1 1.8-.3s-.3-.3-1.2-.3h-8.5z"/><path d="m108 31.1c-.8 0-1.4.1-1.3.3.1.1.9.3 1.7.3h2.6c.8 0 1.6-.1 1.7-.3s-.5-.3-1.3-.3h-3.4z"/><path d="m48.8 31.2c-.8 0-1.4.2-1.4.3.1.1.8.3 1.6.3h1c.8 0 1.6-.1 1.6-.3.1-.2-.5-.3-1.4-.3h-1.4z"/></g></g></svg>